<?xml version="1.0" encoding="UTF-8"?>
<svg width="140px" height="140px" viewBox="0 0 140 140" version="1.1" xmlns="http://www.w3.org/2000/svg" xmlns:xlink="http://www.w3.org/1999/xlink"><defs><path d="M89.5207,89.5207 C75.5476051,103.4931 24.4523949,103.4931 10.4793,89.5207 C-3.49309999,75.5476051 -3.49309999,24.4523949 10.4793,10.4793 C24.4523949,-3.49309999 75.5476051,-3.49309999 89.5207,10.4793 C103.4931,24.4523949 103.4931,75.5476051 89.5207,89.5207" id="female-path-1"></path><filter x="-34.0%" y="-26.0%" width="168.0%" height="168.0%" filterUnits="objectBoundingBox" id="female-filter-2"><feOffset dx="0" dy="8" in="SourceAlpha" result="shadowOffsetOuter1"></feOffset><feGaussianBlur stdDeviation="10" in="shadowOffsetOuter1" result="shadowBlurOuter1"></feGaussianBlur><feColorMatrix values="0 0 0 0 0.137254902   0 0 0 0 0.0431372549   0 0 0 0 0.28627451  0 0 0 0.1 0" type="matrix" in="shadowBlurOuter1"></feColorMatrix></filter><linearGradient x1="3.21656742%" y1="100%" x2="96.7834326%" y2="0%" id="female-linearGradient-3"><stop stop-color="#FAD961" offset="0%"></stop><stop stop-color="#F76B1C" offset="100%"></stop></linearGradient></defs><g id="female-Page-1" stroke="none" stroke-width="1" fill="none" fill-rule="evenodd"><g id="female-hoory-f" transform="translate(20.000000, 12.000000)"><g id="female-Fill-2"><use fill="black" fill-opacity="1" filter="url(#female-filter-2)" xlink:href="#female-path-1"></use><use fill="#FFFFFF" fill-rule="evenodd" xlink:href="#female-path-1"></use></g><path d="M78.6630823,58.2818062 L78.8287797,58.2883423 C79.2156113,58.3189373 79.6017777,58.4575968 79.9433101,58.7180645 L79.9433101,58.7180645 L80.0851706,58.8361805 C80.5379788,59.2472738 80.788641,59.8269912 80.7907468,60.4220645 L80.7907468,60.4220645 L80.7907468,60.4336774 L80.7816318,60.6249577 C80.7639146,60.8162984 80.7201915,61.0072581 80.6486709,61.1927742 L80.6486709,61.1927742 L80.4932548,61.5883983 C75.7031855,73.5505926 64.0349205,82 50.3915127,82 L50.3915127,82 L49.9427154,81.9969488 C36.3512698,81.8120426 24.7861164,73.2409846 20.142462,61.2129032 L20.142462,61.2129032 L20.0801349,61.0263468 C20.0269288,60.8383629 20.0008687,60.6466774 20,60.4565161 L20,60.4565161 L20,60.4390968 L20.0081468,60.2613993 C20.059845,59.6716278 20.3554005,59.1124809 20.8478228,58.7366452 L20.8478228,58.7366452 L20.9764933,58.6455992 C22.1078449,57.9044662 23.6421404,58.4037849 24.1414367,59.6931613 L24.1414367,59.6931613 L24.2898067,60.0683841 C28.4664058,70.4130512 38.5767016,77.7113548 50.3915127,77.7113548 L50.3915127,77.7113548 L50.8180514,77.7081804 C62.5979782,77.5327357 72.6197343,70.1019954 76.6489241,59.6757419 C76.989443,58.7943226 77.8141013,58.2814194 78.6630823,58.2818062 L78.6630823,58.2818062 Z M50.790157,19.1541739 C52.0917851,19.1616087 53.3654463,19.2817391 54.6084215,19.4957826 C65.5998182,21.3838261 73.969314,31.020087 73.969314,42.6312609 L73.969314,42.6312609 L73.969314,52.4475217 C73.969314,53.6554783 72.9974628,54.6345217 71.7987686,54.6345217 L71.7987686,54.6345217 L69.0384197,54.6343539 C66.7328496,62.9092917 60.9648233,70.8089625 50.1650485,70.8089625 L50.1650485,70.8089625 L49.7715717,70.8054851 C38.6097363,70.6075652 32.2089269,61.9910701 30.6733692,52.6656412 C27.5177944,49.7410197 27.3604628,43.8071304 27.3604628,43.8071304 L27.3604628,42.6312609 C27.3604628,34.9045652 31.0668595,28.0504783 36.7857107,23.7727391 C40.6307769,20.8954783 45.3859339,19.1819565 50.5376777,19.1541739 L50.5376777,19.1541739 Z M41.7218568,43.1490049 C38.929945,44.7759529 35.8082372,45.8911971 32.4810387,46.3669992 L32.4803883,48.2355375 C32.4803883,57.965275 38.4687379,68.6436125 50.1650485,68.6436125 L50.1650485,68.6436125 L50.5714337,68.639313 C60.1130994,68.4363168 64.2680259,61.0817384 66.7541748,54.35455 L66.649,54.6341739 L66.5518595,54.6345217 C63.2101788,54.6345217 59.9970753,54.0800562 56.9981935,53.0575141 C54.5994041,52.3512049 52.2844384,51.3641608 50.1075728,50.1110375 L50.1075728,50.1110375 L49.5414111,49.7775067 C46.5437847,47.9708522 43.8975899,45.7198875 41.6500971,43.0662875 Z M56.409,62.1716667 L56.5013666,62.1782987 C56.9450962,62.2435208 57.1111875,62.7732083 56.725875,63.0263333 L56.725875,63.0263333 L56.4450597,63.2057429 C51.5871951,66.2199509 47.2402571,64.3009182 45.232125,63.0313333 L45.232125,63.0313333 L45.160007,62.9775138 C44.8357002,62.6916862 45.0497578,62.1716667 45.537375,62.1716667 L45.537375,62.1716667 L56.409,62.1716667 Z M47.2798624,36.201333 L47.1680496,36.2123043 L46.9594628,36.2447826 L46.8479643,36.2692559 C46.3417663,36.4125948 46.0395576,36.9537739 46.2012479,37.4734783 L46.2012479,37.4734783 L46.2094535,37.4997446 L46.2094535,37.4997446 L46.2179504,37.5263043 L46.3345369,37.8731594 C46.4147548,38.1027826 46.4996915,38.3293913 46.5877355,38.5542609 L46.5877355,38.5542609 L46.7959339,39.0542378 C47.0121679,39.5498125 47.251562,40.0325109 47.505595,40.5053043 L47.505595,40.5053043 L47.768606,40.9727373 C48.3957729,42.0548329 49.1172872,43.075587 49.9336694,44.0082609 L49.9336694,44.0082609 L50.2865961,44.4051008 C52.0763663,46.3634835 54.2386606,47.9337527 56.5696033,49.0772174 L56.5696033,49.0772174 L57.1041509,49.3366064 C59.4325624,50.4284093 61.9138418,51.1055714 64.4061736,51.5306957 C66.0218317,51.8037282 67.6493223,51.9540288 69.2769605,52.0119377 L69.6625243,51.9691 L69.6517977,52.0236543 C70.0662756,52.0348344 70.4807049,52.0401739 70.8948926,52.0401739 L70.8948926,52.0401739 L71.7088471,52.0335217 L71.7088471,52.0335217 L72.5216364,52.0139565 L71.7849623,51.9826213 C69.3302847,51.8609112 66.88658,51.5634229 64.5122149,50.9946087 L64.5122149,50.9946087 L63.9547607,50.8558378 C61.5439952,50.2353645 59.200549,49.3629255 57.0811653,48.1122609 L57.0811653,48.1122609 L56.6546675,47.8597074 C54.5380687,46.5723911 52.6634323,44.9184348 51.1933471,42.9697391 L51.1933471,42.9697391 L50.862739,42.5212907 C50.217128,41.6138935 49.664876,40.6450559 49.2010909,39.6428696 L49.2010909,39.6428696 L49.0065422,39.2009647 C48.8173466,38.7570788 48.6452479,38.30725 48.4995868,37.8514783 L48.4995868,37.8514783 L48.405817,37.5472029 C48.3451644,37.3442174 48.2885399,37.141 48.2377851,36.9377826 L48.2377851,36.9377826 L48.235843,36.9295652 L48.20247,36.8215059 C48.0457813,36.4020754 47.617672,36.1411472 47.1680496,36.2123043 Z M41.6534615,47.26 L41.8139062,47.2654085 C43.0333066,47.347892 43.9969231,48.3635256 43.9969231,49.6034615 L43.9969231,49.6034615 L43.9915165,49.7639062 C43.9090618,50.9833066 42.893766,51.9469231 41.6534615,51.9469231 L41.6534615,51.9469231 L41.4930189,51.9415165 C40.2736478,51.8590618 39.3103846,50.843766 39.3103846,49.6034615 C39.3103846,48.3096154 40.3592308,47.26 41.6534615,47.26 L41.6534615,47.26 Z M27.8163333,19.1552121 L28.0708011,19.1628491 C30.7716218,19.2971685 33.0297273,21.1122792 33.8239091,23.582303 L33.8239091,23.582303 L33.3881532,23.9700816 C30.944369,26.1952933 28.9368283,28.8902862 27.5059091,31.9113636 L27.5059091,31.9113636 L27.2743901,31.8985371 C23.9718371,31.6559224 21.3671515,28.901031 21.3671515,25.5366364 L21.3671515,25.5366364 L21.3713084,25.3041091 C21.4928968,21.9087213 24.2666067,19.1891084 27.6839697,19.1552121 L27.6839697,19.1552121 L27.8163333,19.1552121 Z M72.4968485,19.1552121 L72.7287787,19.1616614 C76.1151275,19.3165975 78.8132727,22.1115697 78.8132727,25.5366364 L78.8132727,25.5366364 L78.8091935,25.7669404 C78.692584,29.0535462 76.0900771,31.7060138 72.8253939,31.9046667 L72.8253939,31.9046667 L72.5771166,31.3954857 C71.0545643,28.3595635 68.9427895,25.6713429 66.3911818,23.4798788 L66.3911818,23.4798788 L66.4751678,23.2480896 C67.3877473,20.8745929 69.6762917,19.183071 72.3644848,19.1552121 L72.3644848,19.1552121 L72.4968485,19.1552121 Z" id="female-Combined-Shape" fill="url(#female-linearGradient-3)"></path><path d="M68.0513143,44.741887 L73.9701714,44.741887 L73.9701714,41.2964522 L68.0513143,41.2964522 C67.125219,41.2964522 66.3743619,42.067713 66.3743619,43.0193652 C66.3743619,43.9706261 67.125219,44.741887 68.0513143,44.741887" id="female-Fill-18" fill="#000000" opacity="0.0979120164"></path><path d="M71.0282667,49.9094913 L73.969981,49.9094913 L73.969981,46.4640565 L71.0282667,46.4640565 C70.1021714,46.4640565 69.3513143,47.2353174 69.3513143,48.1869696 C69.3513143,49.1382304 70.1021714,49.9094913 71.0282667,49.9094913" id="female-Fill-20" fill="#000000" opacity="0.0979120164"></path></g></g></svg>