<?xml version="1.0" encoding="UTF-8"?>
<svg width="140px" height="140px" viewBox="0 0 142 142" version="1.1" xmlns="http://www.w3.org/2000/svg" xmlns:xlink="http://www.w3.org/1999/xlink"><defs><path d="M89.5207,89.5207 C75.5476051,103.4931 24.4523949,103.4931 10.4793,89.5207 C-3.49309999,75.5476051 -3.49309999,24.4523949 10.4793,10.4793 C24.4523949,-3.49309999 75.5476051,-3.49309999 89.5207,10.4793 C103.4931,24.4523949 103.4931,75.5476051 89.5207,89.5207" id="female-selected-path-1"></path><filter x="-35.5%" y="-27.5%" width="171.0%" height="171.0%" filterUnits="objectBoundingBox" id="female-selected-filter-2"><feMorphology radius="1.5" operator="dilate" in="SourceAlpha" result="shadowSpreadOuter1"></feMorphology><feOffset dx="0" dy="8" in="shadowSpreadOuter1" result="shadowOffsetOuter1"></feOffset><feGaussianBlur stdDeviation="10" in="shadowOffsetOuter1" result="shadowBlurOuter1"></feGaussianBlur><feComposite in="shadowBlurOuter1" in2="SourceAlpha" operator="out" result="shadowBlurOuter1"></feComposite><feColorMatrix values="0 0 0 0 0.137254902   0 0 0 0 0.0431372549   0 0 0 0 0.28627451  0 0 0 0.1 0" type="matrix" in="shadowBlurOuter1"></feColorMatrix></filter><linearGradient x1="3.21656742%" y1="100%" x2="96.7834326%" y2="0%" id="female-selected-linearGradient-3"><stop stop-color="#F5515F" offset="0%"></stop><stop stop-color="#9F041B" offset="100%"></stop></linearGradient></defs><g id="female-selected-Page-1" stroke="none" stroke-width="1" fill="none" fill-rule="evenodd"><g id="female-selected-hoory-f-selected" transform="translate(21.000000, 13.000000)"><g id="female-selected-Fill-2"><use fill="black" fill-opacity="1" filter="url(#female-selected-filter-2)" xlink:href="#female-selected-path-1"></use><use stroke="#F5515F" stroke-width="3" fill="#FFFFFF" fill-rule="evenodd" xlink:href="#female-selected-path-1"></use></g><path d="M78.6630823,58.1276323 L78.8287797,58.1341684 C79.2156113,58.1647634 79.6017777,58.3034229 79.9433101,58.5638906 L79.9433101,58.5638906 L80.0851706,58.6820066 C80.5379788,59.0930999 80.788641,59.6728173 80.7907468,60.2678906 L80.7907468,60.2678906 L80.7907468,60.2795035 L80.7816318,60.4707837 C80.7639146,60.6621245 80.7201915,60.8530842 80.6486709,61.0386003 L80.6486709,61.0386003 L80.4932548,61.4342244 C75.7031855,73.3964187 64.0349205,81.8458261 50.3915127,81.8458261 L50.3915127,81.8458261 L49.9427154,81.8427749 C36.3512698,81.6578687 24.7861164,73.0868107 20.142462,61.0587293 L20.142462,61.0587293 L20.0801349,60.8721729 C20.0269288,60.684189 20.0008687,60.4925035 20,60.3023422 L20,60.3023422 L20,60.2849229 L20.0081468,60.1072254 C20.059845,59.5174539 20.3554005,58.958307 20.8478228,58.5824712 L20.8478228,58.5824712 L20.9764933,58.4914253 C22.1078449,57.7502923 23.6421404,58.249611 24.1414367,59.5389874 L24.1414367,59.5389874 L24.2898067,59.9142102 C28.4664058,70.2588773 38.5767016,77.5571809 50.3915127,77.5571809 L50.3915127,77.5571809 L50.8180514,77.5540065 C62.5979782,77.3785618 72.6197343,69.9478215 76.6489241,59.521568 C76.989443,58.6401487 77.8141013,58.1272454 78.6630823,58.1276323 L78.6630823,58.1276323 Z M50.790157,19 C52.0917851,19.0074348 53.3654463,19.1275652 54.6084215,19.3416087 C65.5998182,21.2296522 73.969314,30.865913 73.969314,42.477087 L73.969314,42.477087 L73.969314,52.2933478 C73.969314,53.5013043 72.9974628,54.4803478 71.7987686,54.4803478 L71.7987686,54.4803478 L69.0384197,54.48018 C66.7328496,62.7551178 60.9648233,70.6547886 50.1650485,70.6547886 L50.1650485,70.6547886 L49.7715717,70.6513112 C38.6097363,70.4533913 32.2089269,61.8368962 30.6733692,52.5114673 C27.5177944,49.5868458 27.3604628,43.6529565 27.3604628,43.6529565 L27.3604628,42.477087 C27.3604628,34.7503913 31.0668595,27.8963043 36.7857107,23.6185652 C40.6307769,20.7413043 45.3859339,19.0277826 50.5376777,19 L50.5376777,19 Z M41.7218568,42.994831 C38.929945,44.621779 35.8082372,45.7370231 32.4810387,46.2128253 L32.4803883,48.0813636 C32.4803883,57.8111011 38.4687379,68.4894386 50.1650485,68.4894386 L50.1650485,68.4894386 L50.5714337,68.4851391 C60.1130994,68.2821429 64.2680259,60.9275645 66.7541748,54.2003761 L66.649,54.48 L66.5518595,54.4803478 C63.2101788,54.4803478 59.9970753,53.9258823 56.9981935,52.9033401 C54.5994041,52.1970309 52.2844384,51.2099869 50.1075728,49.9568636 L50.1075728,49.9568636 L49.5414111,49.6233328 C46.5437847,47.8166783 43.8975899,45.5657136 41.6500971,42.9121136 Z M56.409,62.0174928 L56.5013666,62.0241248 C56.9450962,62.0893469 57.1111875,62.6190344 56.725875,62.8721594 L56.725875,62.8721594 L56.4450597,63.051569 C51.5871951,66.065777 47.2402571,64.1467443 45.232125,62.8771594 L45.232125,62.8771594 L45.160007,62.8233399 C44.8357002,62.5375123 45.0497578,62.0174928 45.537375,62.0174928 L45.537375,62.0174928 L56.409,62.0174928 Z M47.2798624,36.0471591 L47.1680496,36.0581304 L46.9594628,36.0906087 L46.8479643,36.115082 C46.3417663,36.2584209 46.0395576,36.7996 46.2012479,37.3193043 L46.2012479,37.3193043 L46.2094535,37.3455707 L46.2094535,37.3455707 L46.2179504,37.3721304 L46.3345369,37.7189855 C46.4147548,37.9486087 46.4996915,38.1752174 46.5877355,38.400087 L46.5877355,38.400087 L46.7959339,38.9000639 C47.0121679,39.3956386 47.251562,39.878337 47.505595,40.3511304 L47.505595,40.3511304 L47.768606,40.8185633 C48.3957729,41.900659 49.1172872,42.921413 49.9336694,43.854087 L49.9336694,43.854087 L50.2865961,44.2509269 C52.0763663,46.2093096 54.2386606,47.7795788 56.5696033,48.9230435 L56.5696033,48.9230435 L57.1041509,49.1824325 C59.4325624,50.2742354 61.9138418,50.9513975 64.4061736,51.3765217 C66.0218317,51.6495543 67.6493223,51.7998549 69.2769605,51.8577638 L69.6625243,51.8149261 L69.6517977,51.8694803 C70.0662756,51.8806605 70.4807049,51.886 70.8948926,51.886 L70.8948926,51.886 L71.7088471,51.8793478 L71.7088471,51.8793478 L72.5216364,51.8597826 L71.7849623,51.8284474 C69.3302847,51.7067373 66.88658,51.409249 64.5122149,50.8404348 L64.5122149,50.8404348 L63.9547607,50.7016639 C61.5439952,50.0811906 59.200549,49.2087516 57.0811653,47.958087 L57.0811653,47.958087 L56.6546675,47.7055335 C54.5380687,46.4182172 52.6634323,44.7642609 51.1933471,42.8155652 L51.1933471,42.8155652 L50.862739,42.3671167 C50.217128,41.4597196 49.664876,40.490882 49.2010909,39.4886957 L49.2010909,39.4886957 L49.0065422,39.0467908 C48.8173466,38.6029049 48.6452479,38.1530761 48.4995868,37.6973043 L48.4995868,37.6973043 L48.405817,37.393029 C48.3451644,37.1900435 48.2885399,36.9868261 48.2377851,36.7836087 L48.2377851,36.7836087 L48.235843,36.7753913 L48.20247,36.667332 C48.0457813,36.2479015 47.617672,35.9869732 47.1680496,36.0581304 Z M41.6534615,47.1058261 L41.8139062,47.1112346 C43.0333066,47.193718 43.9969231,48.2093517 43.9969231,49.4492876 L43.9969231,49.4492876 L43.9915165,49.6097323 C43.9090618,50.8291327 42.893766,51.7927492 41.6534615,51.7927492 L41.6534615,51.7927492 L41.4930189,51.7873426 C40.2736478,51.7048879 39.3103846,50.6895921 39.3103846,49.4492876 C39.3103846,48.1554415 40.3592308,47.1058261 41.6534615,47.1058261 L41.6534615,47.1058261 Z M27.8163333,19.0010382 L28.0708011,19.0086752 C30.7716218,19.1429946 33.0297273,20.9581052 33.8239091,23.4281291 L33.8239091,23.4281291 L33.3881532,23.8159077 C30.944369,26.0411194 28.9368283,28.7361123 27.5059091,31.7571897 L27.5059091,31.7571897 L27.2743901,31.7443632 C23.9718371,31.5017485 21.3671515,28.7468571 21.3671515,25.3824625 L21.3671515,25.3824625 L21.3713084,25.1499352 C21.4928968,21.7545473 24.2666067,19.0349345 27.6839697,19.0010382 L27.6839697,19.0010382 L27.8163333,19.0010382 Z M72.4968485,19.0010382 L72.7287787,19.0074875 C76.1151275,19.1624236 78.8132727,21.9573958 78.8132727,25.3824625 L78.8132727,25.3824625 L78.8091935,25.6127665 C78.692584,28.8993723 76.0900771,31.5518399 72.8253939,31.7504928 L72.8253939,31.7504928 L72.5771166,31.2413118 C71.0545643,28.2053896 68.9427895,25.517169 66.3911818,23.3257049 L66.3911818,23.3257049 L66.4751678,23.0939157 C67.3877473,20.720419 69.6762917,19.0288971 72.3644848,19.0010382 L72.3644848,19.0010382 L72.4968485,19.0010382 Z" id="female-selected-Combined-Shape" fill="url(#female-selected-linearGradient-3)"></path><path d="M68.0513143,44.587713 L73.9701714,44.587713 L73.9701714,41.1422783 L68.0513143,41.1422783 C67.125219,41.1422783 66.3743619,41.9135391 66.3743619,42.8651913 C66.3743619,43.8164522 67.125219,44.587713 68.0513143,44.587713" id="female-selected-Fill-18" fill="#000000" opacity="0.0979120164"></path><path d="M71.0282667,49.7553174 L73.969981,49.7553174 L73.969981,46.3098826 L71.0282667,46.3098826 C70.1021714,46.3098826 69.3513143,47.0811435 69.3513143,48.0327957 C69.3513143,48.9840565 70.1021714,49.7553174 71.0282667,49.7553174" id="female-selected-Fill-20" fill="#000000" opacity="0.0979120164"></path></g></g></svg>