<?xml version="1.0" encoding="UTF-8"?>
<svg width="140px" height="140px" viewBox="0 0 140 140" version="1.1" xmlns="http://www.w3.org/2000/svg" xmlns:xlink="http://www.w3.org/1999/xlink"><defs><path d="M89.5207,89.5207 C75.5476051,103.4931 24.4523949,103.4931 10.4793,89.5207 C-3.49309999,75.5476051 -3.49309999,24.4523949 10.4793,10.4793 C24.4523949,-3.49309999 75.5476051,-3.49309999 89.5207,10.4793 C103.4931,24.4523949 103.4931,75.5476051 89.5207,89.5207" id="male-path-1"></path><filter x="-34.0%" y="-26.0%" width="168.0%" height="168.0%" filterUnits="objectBoundingBox" id="male-filter-2"><feOffset dx="0" dy="8" in="SourceAlpha" result="shadowOffsetOuter1"></feOffset><feGaussianBlur stdDeviation="10" in="shadowOffsetOuter1" result="shadowBlurOuter1"></feGaussianBlur><feColorMatrix values="0 0 0 0 0.137254902   0 0 0 0 0.0431372549   0 0 0 0 0.28627451  0 0 0 0.1 0" type="matrix" in="shadowBlurOuter1"></feColorMatrix></filter><linearGradient x1="3.21632432%" y1="100%" x2="96.7836757%" y2="0%" id="male-linearGradient-3"><stop stop-color="#B4EC51" offset="0%"></stop><stop stop-color="#429321" offset="100%"></stop></linearGradient></defs><g id="male-Page-1" stroke="none" stroke-width="1" fill="none" fill-rule="evenodd"><g id="male-hoory-m" transform="translate(20.000000, 12.000000)"><g id="male-Fill-2-Copy"><use fill="black" fill-opacity="1" filter="url(#male-filter-2)" xlink:href="#male-path-1"></use><use fill="#FFFFFF" fill-rule="evenodd" xlink:href="#male-path-1"></use></g><path d="M78.6626962,58.2818065 L78.8285211,58.2883425 C79.2156113,58.3189375 79.6017777,58.4575968 79.9433101,58.7180645 L79.9433101,58.7180645 L80.0717947,58.8241673 C80.7310053,59.4128456 80.9706128,60.3566224 80.6486709,61.1923871 L80.6486709,61.1923871 L80.4932548,61.5880237 C75.7031855,73.5505926 64.0349205,82 50.3915127,82 L50.3915127,82 L49.9427154,81.9969488 C36.3512698,81.8120426 24.7861164,73.2409888 20.142462,61.2132903 L20.142462,61.2132903 L20.0802978,61.0270907 C20.027146,60.8395242 20.0008687,60.6484194 20,60.4588387 L20,60.4588387 L20,60.4375484 L20.0082422,60.2599571 C20.0602247,59.6705433 20.3557163,59.1118123 20.8474367,58.7370323 L20.8474367,58.7370323 L20.9761088,58.6459833 C22.1074869,57.9047981 23.6421404,58.4034265 24.1414367,59.6935484 L24.1414367,59.6935484 L24.2898202,60.0687442 C28.4667827,70.4126824 38.5767016,77.7117419 50.3915127,77.7117419 L50.3915127,77.7117419 L50.8180379,77.7085672 C62.5976013,77.5331045 72.6197343,70.1016129 76.6489241,59.6757419 C76.989443,58.7943226 77.8137152,58.2818065 78.6626962,58.2818065 L78.6626962,58.2818065 Z M50.588562,19.1544478 C55.7601157,19.1711343 60.5339174,20.8704478 64.3918017,23.7327761 L64.3918017,23.7327761 L64.713328,23.9756642 C70.248809,28.2326002 73.8166612,34.9168837 73.8166612,42.4353134 L73.8166612,42.4353134 L73.8164626,43.607547 C73.8090862,43.8361697 73.5776474,50.0339464 70.0916198,52.7301493 L70.0916198,52.7301493 L70.0338584,53.0615628 C68.3592308,62.3317481 61.8711073,70.7825953 50.6650826,70.8075224 L50.6650826,70.8075224 L50.6650826,70.8086866 L50.6534298,70.8082985 L50.6534298,70.8082985 L50.6289587,70.8082985 L50.6289587,70.8082985 L50.6161405,70.8086866 L50.6161405,70.8071343 L50.2207008,70.8027349 C39.0726269,70.578723 32.6892899,61.9391399 31.1670744,52.5997612 L31.1670744,52.5997612 L31.182563,52.7098246 L31.182563,52.7098246 L31.2000909,52.8213433 L31.0000377,52.6676384 C27.5284681,49.8849623 27.3604628,43.6010448 27.3604628,43.6010448 L27.3604628,42.4353134 L27.3644098,42.0024947 C27.5010431,34.5167367 31.174755,27.8957634 36.7853223,23.7327761 L36.7853223,23.7327761 L37.1615078,23.4594247 C40.9516077,20.7625655 45.5838326,19.1705961 50.588562,19.1544478 Z M37.5944215,35.6807463 L37.4559953,36.2292325 C36.5525432,39.7283137 35.1360496,43.6878343 32.9367603,46.9146866 L32.9367603,46.9146866 L32.9767686,47.5910746 L32.9767686,48.2026567 C32.9767686,57.9394627 38.9578099,68.6239104 50.6402231,68.6394328 L50.6402231,68.6394328 L51.0151098,68.6352583 C62.4509661,68.394635 68.3044545,57.8351497 68.3044545,48.2026567 L68.3044545,48.2026567 L68.3044545,47.5910746 L68.1560744,42.1237015 L68.1465579,42.0892127 L68.1465579,42.0892127 L68.1370413,42.0550149 L67.4967931,42.0754541 C52.4082694,42.488897 41.8729213,37.9461526 37.5944215,35.6807463 L37.5944215,35.6807463 Z M56.409,62.172 L56.5013708,62.1786283 C56.9451401,62.2438138 57.1115391,62.7732083 56.725875,63.0263333 L56.725875,63.0263333 L56.4450393,63.2057429 C51.5868343,66.219951 47.2402642,64.3009245 45.2325,63.0316667 L45.2325,63.0316667 L45.1603779,62.9778472 C44.8360313,62.6920195 45.0497813,62.172 45.53775,62.172 L45.53775,62.172 L56.409,62.172 Z M41.6534615,47.2603846 L41.8139062,47.2657892 C43.0333066,47.3482145 43.9969231,48.3631571 43.9969231,49.6034615 L43.9969231,49.6034615 L43.9915165,49.7639503 C43.9090618,50.9836599 42.893766,51.9469231 41.6534615,51.9469231 L41.6534615,51.9469231 L41.4930169,51.9415184 C40.2736165,51.8590925 39.31,50.8441346 39.31,49.6034615 C39.31,48.3092308 40.3592308,47.2603846 41.6534615,47.2603846 L41.6534615,47.2603846 Z M59.5214286,47.2603846 L59.6704129,47.2657892 C60.8027133,47.3482145 61.6975,48.3631571 61.6975,49.6034615 L61.6975,49.6034615 L61.6924796,49.7639503 C61.6159146,50.9836599 60.6731399,51.9469231 59.5214286,51.9469231 L59.5214286,51.9469231 L59.3724461,51.9415184 C58.240173,51.8590925 57.3457143,50.8441346 57.3457143,49.6034615 C57.3457143,48.3092308 58.3196429,47.2603846 59.5214286,47.2603846 L59.5214286,47.2603846 Z M39.1631258,30.8958624 C38.8041104,30.7224185 38.3646129,30.8196194 38.1118099,31.1408358 L38.1118099,31.1408358 L38.0485795,31.2325118 C37.8037574,31.6409695 37.9361287,32.1837463 38.3639008,32.4233731 C41.2231322,34.0287761 50.9486364,38.9090149 63.9319008,39.1779403 L63.9319008,39.1779403 L63.3703551,39.1307446 C50.8784911,38.0112777 41.7082353,32.5489104 39.258843,30.9499104 L39.258843,30.9499104 Z" id="male-Combined-Shape" fill="url(#male-linearGradient-3)"></path><path d="M72.51784,35.3881348 L68.14304,35.3881348 C67.17024,35.3881348 66.38224,36.159787 66.38224,37.1106565 C66.38224,38.0623087 67.17024,38.8339609 68.14304,38.8339609 L73.43544,38.8339609 C73.21984,37.6510478 72.90704,36.5025696 72.51784,35.3881348" id="male-Fill-16" fill="#000000" opacity="0.0979120164"></path><path d="M69.50788,42.2787304 C69.50788,43.2303826 70.29628,44.0012522 71.26868,44.0012522 L73.81108,44.0012522 L73.81108,42.9791652 C73.81108,42.1597739 73.75948,41.3532957 73.67548,40.5562087 L71.26868,40.5562087 C70.29628,40.5562087 69.50788,41.3270783 69.50788,42.2787304" id="male-Fill-18" fill="#000000" opacity="0.0979120164"></path></g></g></svg>