<?xml version="1.0" encoding="UTF-8"?>
<svg width="25px" height="25px" viewBox="0 0 25 25" version="1.1" xmlns="http://www.w3.org/2000/svg" xmlns:xlink="http://www.w3.org/1999/xlink">
    <!-- Generator: sketchtool 63.1 (101010) - https://sketch.com -->
    <title>6CB18E43-47A5-4290-8CD9-B03290AC7CF7</title>
    <desc>Created with sketchtool.</desc>
    <defs>
        <path d="M0.06349,0.05089 L0.06349,4.87095 L6.76963,4.87095 C6.48074,6.42859 5.60287,7.74837 4.28316,8.63191 L4.28316,8.63191 L4.28316,11.75832 L8.31019,11.75832 C10.66646,9.58909 12.02586,6.39457 12.02586,2.59973 L12.02586,2.59973 C12.02586,1.71612 11.94655,0.86653 11.79927,0.05089 L11.79927,0.05089 L0.06349,0.05089 Z" id="path-1"></path>
        <path d="M0.05803,0.06405 L0.05803,3.29252 C2.1084,7.36498 6.3224,10.15728 11.19349,10.15728 L11.19349,10.15728 C14.55783,10.15728 17.37855,9.04148 19.44019,7.13832 L19.44019,7.13832 L15.41316,4.01191 C14.29729,4.75951 12.86999,5.20135 11.19349,5.20135 L11.19349,5.20135 C7.94794,5.20135 5.20093,3.0093 4.22107,0.06405 L4.22107,0.06405 L0.05803,0.06405 Z" id="path-3"></path>
        <path d="M1.38803,0.01057 C0.54411,1.69274 0.06265,3.59576 0.06265,5.60644 L0.06265,5.60644 C0.06265,7.61726 0.54411,9.52035 1.38803,11.20252 L1.38803,11.20252 L5.55107,7.97405 C5.3018,7.22638 5.16026,6.42782 5.16026,5.60644 L5.16026,5.60644 C5.16026,4.7852 5.3018,3.98664 5.55107,3.23897 L5.55107,3.23897 L5.55107,0.01057 L1.38803,0.01057 Z" id="path-5"></path>
        <path d="M0.05803,6.87057 L4.22107,10.09897 C5.20093,7.15365 7.94794,4.96174 11.19349,4.96174 L11.19349,4.96174 C13.02294,4.96174 14.66549,5.59048 15.95692,6.82521 L15.95692,6.82521 L19.53091,3.25122 C17.37288,1.24047 14.55216,0.00574 11.19349,0.00574 L11.19349,0.00574 C6.3224,0.00574 2.1084,2.79811 0.05803,6.87057 L0.05803,6.87057 Z" id="path-7"></path>
    </defs>
    <g id="Page-1" stroke="none" stroke-width="1" fill="none" fill-rule="evenodd">
        <g id="Wizard---Step-3" transform="translate(-876.000000, -357.000000)">
            <g id="Group-2" transform="translate(790.000000, 291.000000)">
                <g id="Group-24-Copy-5" transform="translate(0.000000, 54.000000)">
                    <g id="Group" transform="translate(86.000000, 12.000000)">
                        <g id="google-icon">
                            <g id="Group-3" transform="translate(12.460000, 10.206910)">
                                <mask id="mask-2" fill="white">
                                    <use xlink:href="#path-1"></use>
                                </mask>
                                <g id="Clip-2"></g>
                                <polygon id="Fill-1" fill="#3E82F1" mask="url(#mask-2)" points="-6.85923 18.68111 18.94844 18.68111 18.94844 -6.87176 -6.85923 -6.87176"></polygon>
                            </g>
                            <g id="Group-6" transform="translate(1.330000, 14.826910)">
                                <mask id="mask-4" fill="white">
                                    <use xlink:href="#path-3"></use>
                                </mask>
                                <g id="Clip-5"></g>
                                <polygon id="Fill-4" fill="#32A753" mask="url(#mask-4)" points="-6.86462 17.08 26.36291 17.08 26.36291 -6.8586 -6.86462 -6.8586"></polygon>
                            </g>
                            <g id="Group-9" transform="translate(0.000000, 6.916910)">
                                <mask id="mask-6" fill="white">
                                    <use xlink:href="#path-5"></use>
                                </mask>
                                <g id="Clip-8"></g>
                                <polygon id="Fill-7" fill="#F9BB00" mask="url(#mask-6)" points="-6.86 18.12517 12.47372 18.12517 12.47372 -6.91222 -6.86 -6.91222"></polygon>
                            </g>
                            <g id="Group-12" transform="translate(1.330000, 0.056910)">
                                <mask id="mask-8" fill="white">
                                    <use xlink:href="#path-7"></use>
                                </mask>
                                <g id="Clip-11"></g>
                                <polygon id="Fill-10" fill="#E74133" mask="url(#mask-8)" points="-6.86462 17.02162 26.45356 17.02162 26.45356 -6.91691 -6.86462 -6.91691"></polygon>
                            </g>
                        </g>
                    </g>
                </g>
            </g>
        </g>
    </g>
</svg>