<?xml version="1.0" encoding="UTF-8"?>
<svg width="16px" height="16px" viewBox="0 0 16 16" version="1.1" xmlns="http://www.w3.org/2000/svg" xmlns:xlink="http://www.w3.org/1999/xlink">
    <!-- Generator: sketchtool 63.1 (101010) - https://sketch.com -->
    <title>0B2E4D00-2078-4389-BD0B-57C2955FD195</title>
    <desc>Created with sketchtool.</desc>
    <g id="Page-1" stroke="none" stroke-width="1" fill="none" fill-rule="evenodd">
        <g id="Logged-In-view" transform="translate(-1556.000000, -48.000000)" fill="#777777" fill-rule="nonzero">
            <g id="Menu-Item-Copy-3" transform="translate(1430.000000, 30.000000)">
                <g id="Title" transform="translate(79.000000, 18.000000)">
                    <g id="Group-2">
                        <g id="logout" transform="translate(47.000000, 0.000000)">
                            <path d="M8.00474468,0 C4.9040241,0 2.21331666,1.77523813 0.889175656,4.36328127 C0.769144137,4.57639233 0.775386442,4.83816137 0.905439532,5.04530168 C1.03549262,5.252442 1.26846976,5.37168651 1.51244472,5.3559847 C1.75641968,5.34028289 1.97220969,5.19215648 2.07467007,4.970052 C3.1784216,2.81276193 5.41151094,1.33333333 8.00474468,1.33333333 C11.6922457,1.33333333 14.6674574,4.31031093 14.6674574,8 C14.6674574,11.6896893 11.6922457,14.6666667 8.00474468,14.6666667 C5.41151094,14.6666667 3.1784216,13.187238 2.07467007,11.029948 C1.97220978,10.8078434 1.75641975,10.6597168 1.51244471,10.6440149 C1.26846966,10.6283131 1.03549242,10.7475576 0.905439312,10.954698 C0.775386203,11.1618384 0.769143982,11.4236076 0.889175656,11.6367187 C2.21331666,14.224762 4.9040241,16 8.00474468,16 C12.4124397,16 16,12.4103107 16,8 C16,3.58968907 12.4124397,0 8.00474468,0 Z M7.3319666,4.66015627 C7.06084557,4.66022773 6.81679999,4.82466015 6.71477931,5.07600316 C6.61275864,5.32734618 6.67310685,5.61547939 6.86739896,5.80468733 L8.39513834,7.33333333 L0.675760638,7.33333333 C0.435479286,7.32993314 0.211981619,7.4562502 0.0908492651,7.66391523 C-0.0302830884,7.87158027 -0.0302830884,8.12841973 0.0908492651,8.33608477 C0.211981619,8.5437498 0.435479286,8.67006686 0.675760638,8.66666667 L8.39513834,8.66666667 L6.86739896,10.1953127 C6.69334172,10.3625237 6.62322677,10.610824 6.6840952,10.844452 C6.74496362,11.0780801 6.927304,11.2605287 7.16079348,11.3214332 C7.39428296,11.3823378 7.64243597,11.3121812 7.80954785,11.1380207 L10.4160744,8.529948 C10.5815369,8.40365289 10.6785266,8.20725875 10.6782718,7.99902632 C10.6780159,7.79079389 10.5805449,7.59463847 10.4147731,7.46875 L7.80954785,4.86197933 C7.68410823,4.73295742 7.51186104,4.66015627 7.3319666,4.66015627 L7.3319666,4.66015627 Z" id="Shape"></path>
                        </g>
                    </g>
                </g>
            </g>
        </g>
    </g>
</svg>