<?xml version="1.0" encoding="UTF-8"?>
<svg width="147px" height="43px" viewBox="0 0 147 43" version="1.1" xmlns="http://www.w3.org/2000/svg" xmlns:xlink="http://www.w3.org/1999/xlink">
    <!-- Generator: sketchtool 63.1 (101010) - https://sketch.com -->
    <title>F39CF264-1E41-4746-88D2-983C410AD2B9</title>
    <desc>Created with sketchtool.</desc>
    <g id="Page-1" stroke="none" stroke-width="1" fill="none" fill-rule="evenodd">
        <g id="Wizard---Step-2" transform="translate(-51.000000, -30.000000)">
            <g id="side">
                <g id="logo" transform="translate(51.000000, 30.000000)">
                    <g id="hoory-logo-white">
                        <g id="text" transform="translate(47.492308, 5.276923)" fill="#FFFFFF">
                            <path d="M11.9753135,26.9820781 L11.9753135,17.464031 C11.9753135,15.6540464 10.5129522,14.144542 8.70645036,14.1807701 C7.65842872,14.2016072 6.88411233,14.5340533 6.35088346,15.2107849 C5.79969121,15.9104846 5.50542262,16.7205261 5.50542262,17.7147864 L5.50542262,26.9820781 C5.50542262,27.4977958 5.08801031,27.9159582 4.57321754,27.9159582 L1.10746625,27.9159582 C0.592673488,27.9159582 0.175261173,27.4977958 0.175261173,26.9820781 L0.175261173,0.935253432 C0.175261173,0.41953568 0.592673488,0.00137335306 1.10746625,0.00137335306 L4.57321754,0.00137335306 C5.08801031,0.00137335306 5.50542262,0.41953568 5.50542262,0.935253432 L5.50542262,11.748988 L5.54205847,11.748988 C6.27761177,10.7547278 7.30672458,10.0180896 8.29920153,9.68659061 C9.29167849,9.35532838 9.99035958,9.24474978 10.578424,9.24474978 C12.8210107,9.24474978 14.6223127,10.0917298 15.6880613,11.4911292 C16.7542827,12.8538269 17.3054749,14.5847253 17.3054749,16.5365442 L17.3054749,26.9820781 C17.3054749,27.4977958 16.888299,27.9159582 16.3732699,27.9159582 L12.9075186,27.9159582 C12.3927258,27.9159582 11.9753135,27.4977958 11.9753135,26.9820781" id="Fill-1"></path>
                            <path d="M26.3846419,18.7461508 C26.3846419,20.1086118 26.8256902,21.2134506 27.6709147,22.0973691 C28.5534841,22.9812875 29.6197055,23.4228916 30.9062147,23.4228916 C32.156088,23.4228916 33.2220731,22.9812875 34.1041697,22.0973691 C34.9867392,21.2503891 35.3909153,20.1086118 35.3909153,18.7461508 C35.3909153,17.3834531 34.9867392,16.2786143 34.1041697,15.3946958 C33.2220731,14.5110142 32.156088,14.0691733 30.8693425,14.0691733 C29.6197055,14.0691733 28.5534841,14.5110142 27.6709147,15.3946958 C26.8256902,16.2786143 26.3846419,17.3834531 26.3846419,18.7461508 M22.2674816,13.9216563 C23.1495783,12.4486167 24.3625794,11.2703745 25.9067213,10.4231577 C27.4506269,9.61287944 29.1049127,9.17103861 30.9428505,9.17103861 C32.7441525,9.17103861 34.4353105,9.57617776 35.9425803,10.4231577 C37.4493773,11.233436 38.6626148,12.3749766 39.5451842,13.8480161 C40.4272809,15.284354 40.8680929,16.9049106 40.8680929,18.7092124 C40.8680929,20.5137509 40.4272809,22.1343075 39.5451842,23.6071103 C38.6259789,25.1170883 37.4127414,26.2586288 35.9054717,27.0686704 C34.3618025,27.9161239 32.6706444,28.3212631 30.8693425,28.3212631 C29.0311683,28.3212631 27.3771188,27.9161239 25.8332133,27.1058456 C24.3259435,26.2586288 23.1495783,25.1540268 22.2674816,23.6809872 C21.3851485,22.2077109 20.907228,20.5871543 20.907228,18.819791 C20.907228,17.0150156 21.3851485,15.3946958 22.2674816,13.9216563" id="Fill-3"></path>
                            <path d="M48.9914423,18.7461508 C48.9914423,20.1086118 49.432727,21.2134506 50.2781879,22.0973691 C51.1605209,22.9812875 52.2265059,23.4228916 53.5132515,23.4228916 C54.7628885,23.4228916 55.8291099,22.9812875 56.7114429,22.0973691 C57.5935396,21.2503891 57.9977157,20.1086118 57.9977157,18.7461508 C57.9977157,17.3834531 57.5935396,16.2786143 56.7114429,15.3946958 C55.8291099,14.5110142 54.7628885,14.0691733 53.4766156,14.0691733 C52.2265059,14.0691733 51.1605209,14.5110142 50.2781879,15.3946958 C49.432727,16.2786143 48.9914423,17.3834531 48.9914423,18.7461508 M44.874282,13.9216563 C45.7563787,12.4486167 46.9696162,11.2703745 48.5137581,10.4231577 C50.0576637,9.61287944 51.7119495,9.17103861 53.5498873,9.17103861 C55.3511893,9.17103861 57.042111,9.57617776 58.5493807,10.4231577 C60.0564141,11.233436 61.2694152,12.3749766 62.1519846,13.8480161 C63.0340813,15.284354 63.4751297,16.9049106 63.4751297,18.7092124 C63.4751297,20.5137509 63.0340813,22.1343075 62.1519846,23.6071103 C61.2327794,25.1170883 60.0197782,26.2586288 58.5125085,27.0686704 C56.9686029,27.9161239 55.2779176,28.3212631 53.4766156,28.3212631 C51.6382051,28.3212631 49.9839193,27.9161239 48.4402501,27.1058456 C46.9329803,26.2586288 45.7563787,25.1540268 44.874282,23.6809872 C43.9921853,22.2077109 43.5142648,20.5871543 43.5142648,18.819791 C43.5142648,17.0150156 43.9921853,15.3946958 44.874282,13.9216563" id="Fill-5"></path>
                            <path d="M78.5461724,13.7909036 C78.5461724,14.3336148 78.0876334,14.7626693 77.5473137,14.7217055 C77.3303349,14.7051305 77.1005927,14.6951855 76.8554871,14.6951855 C74.2084879,14.6951855 72.5175662,16.5731274 72.5175662,19.8878808 L72.5175662,26.9819597 C72.5175662,27.4976774 72.1001539,27.9160766 71.5853611,27.9160766 L68.1928815,27.9160766 C67.6780888,27.9160766 67.2606765,27.4976774 67.2606765,26.9819597 L67.2606765,10.5469489 C67.2606765,10.0312312 67.6780888,9.61283208 68.1928815,9.61283208 L71.4012364,9.61283208 C71.9162656,9.61283208 72.3336779,10.0312312 72.3336779,10.5469489 L72.3336779,12.2645874 L72.3703137,12.2645874 C73.3261548,10.2760669 75.0908209,9.42908691 77.1126471,9.42908691 C77.3208805,9.42908691 77.5293503,9.44305723 77.7380565,9.46791965 C78.201559,9.52356413 78.5461724,9.926809 78.5461724,10.3944594 L78.5461724,13.7909036 Z" id="Fill-7"></path>
                            <path d="M83.478114,35.6531688 L87.4052406,25.964163 L80.3479943,10.944653 C80.0567984,10.3252235 80.5080103,9.61297415 81.1913279,9.61297415 L84.9936563,9.61297415 C85.3642693,9.61297415 85.6996646,9.83294743 85.8480988,10.1732075 L90.1621473,20.071768 L94.0110387,10.2070677 C94.1507276,9.84857524 94.4953409,9.61297415 94.8791901,9.61297415 L98.370941,9.61297415 C99.0329863,9.61297415 99.4839617,10.2847332 99.2343652,10.8991903 L88.8912379,36.3566571 C88.7484763,36.7085196 88.407172,36.9384379 88.0278137,36.9384379 L84.3417746,36.9384379 C83.680202,36.9384379 83.2292266,36.2673891 83.478114,35.6531688" id="Fill-9"></path>
                        </g>
                        <g id="icon">
                            <path d="M13.5807293,12.9780535 C11.562206,14.2632872 9.23087478,15.0921202 6.7265406,15.3216178 L6.7265406,15.3216178 C6.65126095,15.3286938 6.57504615,15.3334111 6.49906514,15.3390719 L6.49906514,15.3390719 L6.49906514,17.8015127 C6.49906514,24.4614244 10.5167073,31.5416492 18.4516967,31.5416492 L18.4516967,31.5416492 C25.6502547,31.5416492 29.1353284,25.6468867 30.1892435,20.0740814 L30.1892435,20.0740814 C29.4754896,20.1620594 28.7507476,20.2134782 28.0138487,20.2134782 L28.0138487,20.2134782 L28.0136149,20.2134782 C24.7555491,20.2134782 21.7027489,19.3339339 19.0700652,17.8015127 L19.0700652,17.8015127 C16.9627026,16.5750096 15.1246635,14.9310238 13.6705038,12.9780535 L13.6705038,12.9780535 L13.5807293,12.9780535 Z M7.80547098,17.8015127 L7.80547098,16.5176942 C9.7335184,16.2254563 11.6108339,15.5919202 13.3256669,14.6550606 L13.3256669,14.6550606 C14.7632277,16.3714573 16.4717484,17.8107115 18.4170961,18.943104 L18.4170961,18.943104 C21.3258831,20.6363858 24.6442661,21.5314972 28.0138487,21.5314972 L28.0138487,21.5314972 C28.1550565,21.5314972 28.2964981,21.5296103 28.4384072,21.5263082 L28.4384072,21.5263082 C26.9206573,25.6782569 24.3697993,30.2236301 18.4516967,30.2236301 L18.4516967,30.2236301 C11.4104778,30.2236301 7.80547098,23.7241073 7.80547098,17.8015127 L7.80547098,17.8015127 Z" id="Fill-14" fill="#FFFFFF"></path>
                            <path d="M11.4104778,18.8666834 C11.4104778,19.6603724 12.0480169,20.3038148 12.8347127,20.3038148 L12.8347127,20.3038148 C13.6214084,20.3038148 14.2591813,19.6603724 14.2591813,18.8666834 L14.2591813,18.8666834 C14.2591813,18.0732303 13.6214084,17.4297879 12.8347127,17.4297879 L12.8347127,17.4297879 C12.0480169,17.4297879 11.4104778,18.0732303 11.4104778,18.8666834" id="Fill-17" fill="#FFFFFF"></path>
                            <path d="M15.0636449,26.3547205 C14.7393813,26.3547205 14.6091615,26.7731468 14.8733417,26.9630189 L14.8733417,26.9630189 C16.1493551,27.8784147 18.9400793,29.2714392 22.0389356,26.9594809 L22.0389356,26.9594809 C22.295167,26.7681936 22.1602715,26.3547205 21.841385,26.3547205 L21.841385,26.3547205 L15.0636449,26.3547205 Z" id="Fill-20" fill="#FFFFFF"></path>
                            <path d="M18.4516967,0.145057574 C15.321279,0.145057574 12.4314288,1.18027334 10.0979935,2.92851194 C6.65593671,5.50723464 4.42513418,9.63866305 4.42513418,14.2960726 L4.42513418,15.004614 C4.42513418,15.004614 4.53010487,18.9697569 6.7361259,20.6087895 C7.24741967,18.3065017 6.77984421,16.6554399 6.77984421,16.6554399 C6.85582522,16.6497791 6.65126095,16.646477 6.7265406,16.6396369 C9.23087478,16.4101393 11.562206,15.5810704 13.5807293,14.2960726 C13.6010688,14.2833358 13.6209408,14.2701273 13.6408128,14.2573906 C13.6503981,14.2703632 13.6606847,14.2831 13.6705038,14.2960726 C16.9411942,18.6893122 22.1483483,21.5314972 28.0136149,21.5314972 L31.1716196,21.5314972 C31.8930885,21.5314972 32.4780254,20.9411247 32.4780254,20.2134782 L32.4780254,14.8774822 L32.4780254,14.2960726 C32.4780254,7.29722152 27.4406012,1.48878603 20.8251097,0.350732704 C20.0531426,0.21794016 19.2610698,0.145057574 18.4516967,0.145057574 Z M26.7221715,19.6603724 C25.1066982,19.3846451 23.49894,18.9322542 22.005504,18.1814928 L22.005504,18.1814928 C20.5090287,17.4462985 19.1280446,16.4183946 18.0114744,15.1263208 L18.0114744,15.1263208 C17.4499163,14.483586 16.9629364,13.7719784 16.5500673,13.0146127 L16.5500673,13.0146127 C16.3462044,12.6346327 16.1580053,12.2442745 15.9976269,11.838585 L15.9976269,11.838585 C15.918139,11.6355044 15.8428594,11.4298293 15.775061,11.2194368 L15.775061,11.2194368 C15.7715541,11.208587 15.7682811,11.1977371 15.7650081,11.1871232 L15.7650081,11.1871232 C15.6607388,10.85125 15.8769924,10.5009891 16.2213617,10.4467399 L16.2213617,10.4467399 L16.3469057,10.4269271 C16.6400756,10.3806974 16.9180492,10.5689185 16.9895882,10.8592695 L16.9895882,10.8592695 C16.989822,10.8609205 16.9902896,10.8630433 16.9907572,10.8646944 L16.9907572,10.8646944 C17.0365796,11.0481981 17.0903507,11.2319377 17.1483301,11.4149697 L17.1483301,11.4149697 C17.265224,11.7812696 17.4104061,12.141201 17.5705507,12.4947641 L17.5705507,12.4947641 C17.896217,13.1997675 18.2943575,13.8771746 18.769648,14.5003325 L18.769648,14.5003325 C19.7134491,15.7530167 20.9342886,16.8037996 22.3134024,17.6000832 L22.3134024,17.6000832 C23.6871391,18.411698 25.2172798,18.9593788 26.7859955,19.3372361 L26.7859955,19.3372361 C28.3579842,19.7143857 29.9804711,19.8936439 31.6066985,19.9514311 L31.6066985,19.9514311 C31.2798633,19.9618092 30.9520929,19.9674699 30.6243225,19.9674699 L30.6243225,19.9674699 C29.321891,19.9674699 28.015719,19.8794919 26.7221715,19.6603724 L26.7221715,19.6603724 Z" id="Fill-23" fill="#FFFFFF"></path>
                            <path d="M34.3036738,24.6595518 C31.8344078,31.0890224 25.6483844,35.6490193 18.4035364,35.6490193 L18.4035364,35.6490193 C11.1628966,35.6490193 4.97944489,31.0942114 2.50784099,24.6701657 L2.50784099,24.6701657 C2.19386407,23.8543053 1.20400682,23.5578218 0.513397858,24.0878126 L0.513397858,24.0878126 C0.185393671,24.3392458 0.00163651412,24.7265377 0,25.1249153 L0,25.1249153 L0,25.1355293 C0.000701363194,25.2900215 0.0285221032,25.4459289 0.0862676728,25.5961756 L0.0862676728,25.5961756 C2.92912648,33.0059051 10.0559117,38.2621784 18.4035364,38.2621784 L18.4035364,38.2621784 C26.7560707,38.2621784 33.8861289,33.0002444 36.7257147,25.5841464 L36.7257147,25.5841464 C36.9328506,25.042834 36.7563409,24.4272238 36.2985845,24.0762552 L36.2985845,24.0762552 C36.0619913,23.8948743 35.7905638,23.8104343 35.5231106,23.8101984 L35.5231106,23.8101984 C35.0090114,23.8101984 34.5098746,24.1224849 34.3036738,24.6595518" id="Fill-26" fill="#FFFFFF"></path>
                            <path d="M32.4781891,15.7517902 L32.4781891,13.6749903 L28.8458291,13.6749903 C28.2774911,13.6749903 27.8166955,14.1398821 27.8166955,14.7135082 C27.8166955,15.2868984 28.2774911,15.7517902 28.8458291,15.7517902 L32.4781891,15.7517902 Z" id="Fill-29" fill-opacity="0.1" fill="#38098E"></path>
                            <path d="M32.4780722,18.8667542 L32.4780722,16.7899543 L30.6727633,16.7899543 C30.1044253,16.7899543 29.6436297,17.2548461 29.6436297,17.8284722 C29.6436297,18.4018624 30.1044253,18.8667542 30.6727633,18.8667542 L32.4780722,18.8667542 Z" id="Fill-31" fill-opacity="0.1" fill="#38098E"></path>
                            <path d="M4.94016855,0.145057574 C2.84846972,0.145057574 1.15304109,1.85555762 1.15304109,3.96561463 L1.15304109,3.96561463 C1.15304109,6.02708325 2.77155355,7.70621312 4.79615531,7.78286956 L4.79615531,7.78286956 C5.69530292,5.86716612 6.9780962,4.17081803 8.54564294,2.7957194 L8.54564294,2.7957194 C8.05562386,1.25787324 6.62694703,0.145057574 4.94016855,0.145057574 Z" id="Fill-34" fill="#FFFFFF"></path>
                            <path d="M31.87158,0.145057574 C30.2072452,0.145057574 28.7949335,1.22862586 28.286679,2.73415838 L28.286679,2.73415838 C29.8850857,4.11916338 31.1926605,5.83603181 32.105134,7.77862397 L32.105134,7.77862397 C34.0876539,7.65668126 35.6587075,5.99642067 35.6587075,3.96561463 L35.6587075,3.96561463 C35.6587075,1.85555762 33.9630451,0.145057574 31.87158,0.145057574 Z" id="Fill-37" fill="#FFFFFF"></path>
                        </g>
                    </g>
                </g>
            </g>
        </g>
    </g>
</svg>