<?xml version="1.0" encoding="UTF-8"?>
<svg width="22px" height="16px" viewBox="0 0 22 16" version="1.1" xmlns="http://www.w3.org/2000/svg" xmlns:xlink="http://www.w3.org/1999/xlink">
    <!-- Generator: sketchtool 63.1 (101010) - https://sketch.com -->
    <title>294DBE7B-53A0-455D-B500-13EE51D86E22</title>
    <desc>Created with sketchtool.</desc>
    <g id="Page-1" stroke="none" stroke-width="1" fill="none" fill-rule="evenodd">
        <g id="Wizard---Step-3" transform="translate(-1101.000000, -593.000000)" fill="#444444" fill-rule="nonzero">
            <g id="Group-2" transform="translate(790.000000, 291.000000)">
                <g id="Group-24-Copy-4" transform="translate(0.000000, 285.000000)">
                    <g id="password-visibility" transform="translate(311.000000, 17.000000)">
                        <path d="M11,0 C3,0 0,8 0,8 C0,8 3,16 11,16 C19,16 22,8 22,8 C22,8 19,0 11,0 Z M11,3 C13.761,3 16,5.239 16,8 C16,10.761 13.761,13 11,13 C8.239,13 6,10.761 6,8 C6,5.239 8.239,3 11,3 Z M11,5 C9.34314575,5 8,6.34314575 8,8 C8,9.65685425 9.34314575,11 11,11 C12.6568542,11 14,9.65685425 14,8 C14,6.34314575 12.6568542,5 11,5 Z" id="Shape"></path>
                    </g>
                </g>
            </g>
        </g>
    </g>
</svg>